<svg xmlns="http://www.w3.org/2000/svg" width="96" height="27" viewBox="0 0 96 27"><g><g><path fill="#fff" d="M10.443 5.976c-1.07 0-1.917.237-2.538.71-.62.472-.93 1.073-.93 1.802 0 .638.34 1.216 1.024 1.735.684.519 1.886 1.054 3.606 1.606 1.72.553 3.134 1.148 4.239 1.786 2.688 1.55 4.033 3.686 4.033 6.409 0 2.176-.82 3.885-2.461 5.127-1.64 1.242-3.89 1.863-6.75 1.863-2.017 0-3.843-.362-5.478-1.086-1.635-.723-2.865-1.714-3.691-2.973-.826-1.259-1.24-2.709-1.24-4.35h6.016c0 1.333.345 2.316 1.034 2.948.69.633 1.809.949 3.359.949.99 0 1.774-.214 2.35-.64.575-.428.862-1.029.862-1.804 0-.877-.31-1.56-.931-2.05-.621-.49-1.712-.998-3.273-1.522-1.56-.523-2.837-1.03-3.828-1.52-3.224-1.584-4.836-3.76-4.836-6.53 0-1.377.401-2.594 1.205-3.648.803-1.053 1.94-1.874 3.41-2.46 1.469-.587 3.12-.88 4.955-.88 1.789 0 3.392.318 4.81.956zm13.269 11.28c0-1.846.359-3.49 1.077-4.931.717-1.441 1.748-2.55 3.093-3.324 1.344-.775 2.922-1.162 4.734-1.162 2.768 0 4.95.857 6.545 2.572 1.595 1.715 2.393 4.048 2.393 6.998v.205c0 2.883-.8 5.17-2.401 6.862-1.601 1.692-3.769 2.538-6.503 2.538-2.632 0-4.745-.79-6.34-2.367-1.596-1.578-2.456-3.717-2.581-6.417zm5.76.358c0 1.71.267 2.963.802 3.76.536.798 1.328 1.196 2.376 1.196 2.05 0 3.099-1.577 3.144-4.734v-.58c0-3.316-1.06-4.974-3.178-4.974-1.926 0-2.968 1.43-3.128 4.29zm22.445 9.058h-5.776V.422h5.776zm11.372 0h-5.777V.422h5.777zm11.371 0h-5.776V8.18h5.776zM68.542 3.396c0-.826.296-1.502.889-2.03.592-.527 1.361-.79 2.307-.79.945 0 1.714.263 2.307.79.592.528.889 1.204.889 2.03 0 .825-.297 1.501-.89 2.028-.592.528-1.36.791-2.306.791s-1.715-.263-2.307-.79c-.593-.528-.889-1.204-.889-2.03zm21.062 9.655c-.468-.512-1.094-.769-1.88-.769-1.493 0-2.365.952-2.615 2.854-.08.604-.12 1.436-.12 2.495 0 1.858.222 3.145.667 3.863.444.717 1.15 1.076 2.119 1.076.809 0 1.435-.219 1.88-.658.444-.438.66-1.05.65-1.837h5.4c0 2.028-.727 3.692-2.18 4.99-1.452 1.3-3.323 1.949-5.613 1.949-2.69 0-4.808-.843-6.358-2.53-1.55-1.686-2.324-4.021-2.324-7.007v-.239c0-1.868.344-3.517 1.034-4.947.69-1.43 1.683-2.53 2.982-3.299 1.299-.769 2.837-1.153 4.614-1.153 2.404 0 4.313.666 5.725 2z"/></g></g></svg>